<svg xmlns="http://www.w3.org/2000/svg" xmlns:xlink="http://www.w3.org/1999/xlink" viewBox="0 0 989.84 573.73"><defs><style>.cls-1{fill:url(#Gradiente_sem_nome_6);}.cls-2{fill:url(#Gradiente_sem_nome_5);}.cls-3{fill:url(#Gradiente_sem_nome_4);}.cls-4{fill:url(#Gradiente_sem_nome_5-2);}.cls-5{fill:url(#Gradiente_sem_nome_4-2);}.cls-6{fill:none;}.cls-7{fill:url(#Gradiente_sem_nome_10);}.cls-8{fill:url(#Gradiente_sem_nome_10-2);}.cls-9{fill:url(#Gradiente_sem_nome_10-3);}.cls-10{fill:url(#Gradiente_sem_nome_10-4);}.cls-11{fill:url(#Gradiente_sem_nome_10-5);}.cls-12{fill:url(#Gradiente_sem_nome_10-6);}.cls-13{fill:url(#Gradiente_sem_nome_10-7);}.cls-14{fill:url(#Gradiente_sem_nome_10-8);}.cls-15{fill:url(#Gradiente_sem_nome_10-9);}.cls-16{fill:url(#Gradiente_sem_nome_10-10);}.cls-17{fill:url(#Gradiente_sem_nome_10-11);}.cls-18{fill:url(#Gradiente_sem_nome_10-12);}.cls-19{fill:url(#Gradiente_sem_nome_10-13);}.cls-20{fill:url(#Gradiente_sem_nome_10-14);}.cls-21{fill:url(#Gradiente_sem_nome_10-15);}.cls-22{fill:url(#Gradiente_sem_nome_10-16);}.cls-23{fill:url(#Gradiente_sem_nome_10-17);}.cls-24{fill:url(#Gradiente_sem_nome_10-18);}.cls-25{fill:url(#Gradiente_sem_nome_10-19);}.cls-26{fill:url(#Gradiente_sem_nome_10-20);}.cls-27{fill:url(#Gradiente_sem_nome_10-21);}.cls-28{fill:url(#Gradiente_sem_nome_10-22);}.cls-29{fill:#f15a24;}</style><linearGradient id="Gradiente_sem_nome_6" x1="434.4" y1="3200.2" x2="437.34" y2="2626.52" gradientTransform="matrix(1, 0, 0, -1, 59.06, 3201.22)" gradientUnits="userSpaceOnUse"><stop offset="0" stop-color="#37e0ff"/><stop offset="1" stop-color="#0083b1"/></linearGradient><linearGradient id="Gradiente_sem_nome_5" x1="-2.18" y1="2868.77" x2="987.66" y2="2868.77" gradientTransform="matrix(1, 0, 0, -1, 59.06, 3201.22)" gradientUnits="userSpaceOnUse"><stop offset="0" stop-color="#5fbcd3" stop-opacity="0.12"/><stop offset="1" stop-color="#5fbcd3" stop-opacity="0.12"/></linearGradient><linearGradient id="Gradiente_sem_nome_4" x1="-24.55" y1="3270.4" x2="930.78" y2="3270.4" gradientTransform="matrix(1, 0, 0, -1, 59.06, 3485.58)" gradientUnits="userSpaceOnUse"><stop offset="0" stop-color="#afdde9" stop-opacity="0.39"/><stop offset="1" stop-color="#afdde9" stop-opacity="0"/></linearGradient><linearGradient id="Gradiente_sem_nome_5-2" x1="-59.06" y1="2901.91" x2="922.3" y2="2901.91" xlink:href="#Gradiente_sem_nome_5"/><linearGradient id="Gradiente_sem_nome_4-2" x1="198.86" y1="3351.19" x2="873.85" y2="3351.19" xlink:href="#Gradiente_sem_nome_4"/><linearGradient id="Gradiente_sem_nome_10" x1="568.88" y1="3073.6" x2="1001.61" y2="3073.6" gradientTransform="matrix(1, 0, 0, -1, 59.06, 3485.58)" gradientUnits="userSpaceOnUse"><stop offset="0" stop-color="#d7eef4" stop-opacity="0.12"/><stop offset="1" stop-color="#d7eef4" stop-opacity="0"/></linearGradient><linearGradient id="Gradiente_sem_nome_10-2" x1="568.88" y1="2975.65" x2="1001.58" y2="2975.65" xlink:href="#Gradiente_sem_nome_10"/><linearGradient id="Gradiente_sem_nome_10-3" x1="568.88" y1="3076.06" x2="1001.61" y2="3076.06" xlink:href="#Gradiente_sem_nome_10"/><linearGradient id="Gradiente_sem_nome_10-4" x1="568.88" y1="3076.06" x2="1001.58" y2="3076.06" xlink:href="#Gradiente_sem_nome_10"/><linearGradient id="Gradiente_sem_nome_10-5" x1="568.88" y1="2962.49" x2="1001.58" y2="2962.49" xlink:href="#Gradiente_sem_nome_10"/><linearGradient id="Gradiente_sem_nome_10-6" x1="568.88" y1="3023.96" x2="1001.58" y2="3023.96" xlink:href="#Gradiente_sem_nome_10"/><linearGradient id="Gradiente_sem_nome_10-7" x1="568.88" y1="3023.96" x2="1001.58" y2="3023.96" xlink:href="#Gradiente_sem_nome_10"/><linearGradient id="Gradiente_sem_nome_10-8" x1="568.88" y1="3081.75" x2="1001.61" y2="3081.75" xlink:href="#Gradiente_sem_nome_10"/><linearGradient id="Gradiente_sem_nome_10-9" x1="568.88" y1="3081.75" x2="1001.58" y2="3081.75" xlink:href="#Gradiente_sem_nome_10"/><linearGradient id="Gradiente_sem_nome_10-10" x1="568.88" y1="3081.75" x2="1001.58" y2="3081.75" xlink:href="#Gradiente_sem_nome_10"/><linearGradient id="Gradiente_sem_nome_10-11" x1="568.88" y1="2943.55" x2="1001.62" y2="2943.55" xlink:href="#Gradiente_sem_nome_10"/><linearGradient id="Gradiente_sem_nome_10-12" x1="568.88" y1="2991.09" x2="1001.58" y2="2991.09" xlink:href="#Gradiente_sem_nome_10"/><linearGradient id="Gradiente_sem_nome_10-13" x1="568.88" y1="2991.09" x2="1001.62" y2="2991.09" xlink:href="#Gradiente_sem_nome_10"/><linearGradient id="Gradiente_sem_nome_10-14" x1="568.88" y1="3048.05" x2="1001.58" y2="3048.05" xlink:href="#Gradiente_sem_nome_10"/><linearGradient id="Gradiente_sem_nome_10-15" x1="568.88" y1="3048.05" x2="1001.58" y2="3048.05" xlink:href="#Gradiente_sem_nome_10"/><linearGradient id="Gradiente_sem_nome_10-16" x1="568.88" y1="3048.05" x2="1001.62" y2="3048.05" xlink:href="#Gradiente_sem_nome_10"/><linearGradient id="Gradiente_sem_nome_10-17" x1="568.88" y1="2949.67" x2="1001.62" y2="2949.67" xlink:href="#Gradiente_sem_nome_10"/><linearGradient id="Gradiente_sem_nome_10-18" x1="568.88" y1="2963.68" x2="1001.62" y2="2963.68" xlink:href="#Gradiente_sem_nome_10"/><linearGradient id="Gradiente_sem_nome_10-19" x1="568.88" y1="2963.68" x2="1001.62" y2="2963.68" xlink:href="#Gradiente_sem_nome_10"/><linearGradient id="Gradiente_sem_nome_10-20" x1="568.88" y1="3011.23" x2="1001.58" y2="3011.23" xlink:href="#Gradiente_sem_nome_10"/><linearGradient id="Gradiente_sem_nome_10-21" x1="568.88" y1="3011.23" x2="1001.62" y2="3011.23" xlink:href="#Gradiente_sem_nome_10"/><linearGradient id="Gradiente_sem_nome_10-22" x1="568.88" y1="3011.23" x2="1001.62" y2="3011.23" xlink:href="#Gradiente_sem_nome_10"/></defs><g id="Camada_2" data-name="Camada 2"><g id="Camada_1-2" data-name="Camada 1"><rect id="rect2985" class="cls-1" y="0.02" width="989.84" height="573.53"/><path id="path3787" class="cls-2" d="M0,314.33a995.15,995.15,0,0,1,93.08,95.6c28.11,32.89,89.25,113.31,162.77,163.62h372c83.69-46,210.76-133.12,273.33-186.71,14.63-8.25,52.36-51.18,88.67-96.46v-57C937.57,270.54,874.09,313,843.15,323.54c-125.78,43.64-308,63.53-371.38,40.22C332.24,312.44,251.69,137.52,60.84,100.58c-20.7-4-41-7-60.84-9.24Z"/><path id="path3765" class="cls-3" d="M989.84,157c-21.76,29.5-47.05,60.68-69.83,80.85-54.7,48.4-177.43,133.3-230.92,156.72-49.42,21.64-109,33.31-184.2,10.13-75.52-23.29-143.68-117.19-170.45-149.56C282,191.79,248.56,169.89,220.69,138.78S53.4,104.21,53.4,104.21L34.51,35.07C57.93,30.46,172.8-4.11,311.09,23.55s196.66,158.62,297.77,197c45.91,17.45,178,2.56,269.11-30.12,45.61-16.35,83.73-40.78,111.87-62.74Z"/><path id="path3775" class="cls-4" d="M0,188.67c31.35,1.39,134.66,7.92,158.24,34.24,27.88,31.11,61.34,53,113.75,116.38,26.77,32.37,94.93,126.28,170.45,149.56,75.18,23.19,134.78,11.52,184.2-10.13C680.13,455.3,802.86,370.41,857.56,322S981.35,161.83,981.35,161.83,917,238.23,815.52,274.61c-91.15,32.67-223.2,47.56-269.12,30.11-101.1-38.43-159.47-169.39-297.77-197C140.72,86.09,47.07,102.4,0,112.8Z"/><path id="path3791" class="cls-5" d="M314.84,0C340.9,26.5,372.56,50,419.27,106.52,446,138.89,514.2,232.79,589.72,256.07c75.18,23.19,134.78,11.51,184.2-10.13C823,224.47,930.23,151.3,989.84,102V30.84c-8.71,3.94-17.75,7.64-27.1,11C871.59,74.5,739.54,89.39,693.63,71.94,655.71,57.53,623.8,30.11,591.44,0Z"/><polygon class="cls-6" points="716.21 573.61 744.97 555.47 693.38 573.61 716.21 573.61"/><polygon class="cls-6" points="651.09 573.61 729.3 524.27 588.94 573.61 651.09 573.61"/><polygon class="cls-7" points="627.94 525.36 695.9 501.47 987.5 317.57 987.5 298.6 627.94 525.36"/><polygon class="cls-8" points="729.3 524.27 853 446.25 695.9 501.47 581.52 573.61 588.94 573.61 729.3 524.27"/><polygon class="cls-9" points="853 446.25 987.5 361.4 987.5 317.57 695.9 501.47 853 446.25"/><polygon class="cls-10" points="853 446.25 987.5 361.4 987.5 317.57 695.9 501.47 853 446.25"/><polygon class="cls-11" points="693.38 573.61 744.97 555.47 876.42 472.56 729.3 524.27 651.09 573.61 693.38 573.61"/><polygon class="cls-12" points="729.3 524.27 876.42 472.56 987.5 402.5 987.5 398.96 853 446.25 729.3 524.27"/><polygon class="cls-13" points="729.3 524.27 876.42 472.56 987.5 402.5 987.5 398.96 853 446.25 729.3 524.27"/><polygon class="cls-14" points="987.5 398.96 987.5 361.4 853 446.25 987.5 398.96"/><polygon class="cls-15" points="987.5 398.96 987.5 361.4 853 446.25 987.5 398.96"/><polygon class="cls-16" points="987.5 398.96 987.5 361.4 853 446.25 987.5 398.96"/><polygon class="cls-17" points="772.86 573.61 873.03 510.44 744.97 555.47 716.21 573.61 772.86 573.61"/><polygon class="cls-18" points="744.97 555.47 873.03 510.44 987.5 438.25 987.5 433.51 876.42 472.56 744.97 555.47"/><polygon class="cls-19" points="744.97 555.47 873.03 510.44 987.5 438.25 987.5 433.51 876.42 472.56 744.97 555.47"/><polygon class="cls-20" points="987.5 433.51 987.5 402.5 876.42 472.56 987.5 433.51"/><polygon class="cls-21" points="987.5 433.51 987.5 402.5 876.42 472.56 987.5 433.51"/><polygon class="cls-22" points="987.5 433.51 987.5 402.5 876.42 472.56 987.5 433.51"/><polygon class="cls-23" points="854.34 573.61 987.5 526.81 987.5 498.2 773.02 573.61 854.34 573.61"/><polygon class="cls-24" points="772.86 573.61 773.02 573.61 987.5 498.2 987.5 470.19 873.03 510.44 772.86 573.61"/><polygon class="cls-25" points="772.86 573.61 773.02 573.61 987.5 498.2 987.5 470.19 873.03 510.44 772.86 573.61"/><polygon class="cls-26" points="987.5 470.19 987.5 438.25 873.03 510.44 987.5 470.19"/><polygon class="cls-27" points="987.5 470.19 987.5 438.25 873.03 510.44 987.5 470.19"/><polygon class="cls-28" points="987.5 470.19 987.5 438.25 873.03 510.44 987.5 470.19"/><polygon class="cls-29" points="773.02 573.61 772.86 573.61 772.67 573.73 773.02 573.61"/></g></g></svg>