<svg xmlns="http://www.w3.org/2000/svg" viewBox="0 0 287.48 352.28"><path d="M15.9,202.16q0-44.25,0-88.51c0-9.37,5.06-15.77,13.4-17.24A15.89,15.89,0,0,1,47.85,111c.1,1.37.06,2.75.06,4.13V288c0,19.17,13,32.2,32.2,32.2H207.36c19.16,0,32.2-13.05,32.2-32.2q0-87.21,0-174.41c0-9,4.81-15.43,12.66-17a15.73,15.73,0,0,1,19,13,31.37,31.37,0,0,1,.35,5.22q0,86.82,0,173.65c0,31.73-21.18,57.22-52.29,62.89a63.22,63.22,0,0,1-11.17.91q-64.36.09-128.74,0c-35.67,0-63.4-27.79-63.45-63.46Q15.85,245.48,15.9,202.16Z"/><path d="M207.55,48.05h11.39c17.21,0,34.43-.09,51.64,0,11.67.07,19.35,10,16.18,20.63a15.94,15.94,0,0,1-13.92,11.35c-.87.07-1.75.06-2.62.06H17.28C7.12,80.11-.08,73.33,0,64c.08-9.19,7.21-15.86,17.23-15.89,19.21-.06,38.41,0,57.62,0h5.06V43.83c0-9-.06-18,0-27C80,6.77,86.52.09,96.57.07q47.15-.13,94.29,0c10.07,0,16.59,6.68,16.67,16.74C207.62,27,207.55,37.25,207.55,48.05ZM112,47.72h63.47V32.31H112Z"/><path d="M95.83,199.77c0-18.62-.07-37.23,0-55.85a15.87,15.87,0,0,1,30.33-6.48,21.38,21.38,0,0,1,1.57,8q.15,54.73,0,109.46c0,10.2-6.87,17.38-16.22,17.28-9.18-.1-15.75-7.27-15.76-17.3Q95.79,227.33,95.83,199.77Z"/><path d="M191.64,200.44c0,18.62.06,37.24,0,55.86a15.65,15.65,0,0,1-12,15.32,15.25,15.25,0,0,1-17.39-7.06,20.34,20.34,0,0,1-2.49-9.22q-.24-55.11-.08-110.21c0-9.94,6.9-17,16.11-17s15.84,7.22,15.86,17.2Q191.69,172.9,191.64,200.44Z"/></svg>