<svg xmlns="http://www.w3.org/2000/svg" viewBox="0 0 232.86 304.09"><path d="M116.6,304.08q-22.87,0-45.74,0c-20.77,0-34.11-13.46-34.13-34.34q0-45.74,0-91.48c0-20.72,13.56-34.15,34.35-34.16h91.47c20.78,0,34.29,13.44,34.31,34.19q.06,46.13,0,92.24c0,17-10.14,29.76-26,33a42.31,42.31,0,0,1-8.2.57C147.34,304.1,132,304.08,116.6,304.08ZM69.05,176.34V272h95.51V176.34Z"/><path d="M119.85,0c39.83.76,77.27,15.69,108.51,45.78,5.64,5.44,6,13.31,1,18.78s-13.31,5.79-19.07.24c-20-19.25-43.45-31.88-70.89-36.33-43.46-7-81.54,4.62-114.28,34-2.46,2.21-5.17,4.53-8.19,5.66-5.74,2.16-12-.67-15.09-6S-.38,50.61,4.25,46.06A158.63,158.63,0,0,1,57.92,11.2C76.73,3.79,96.25.17,119.85,0Z"/><path d="M116.43,60.29c27,.51,50.37,10,69.75,29,5.66,5.57,5.95,13.75.74,19.1s-13.32,5.45-19.09-.19C151.49,92.22,132,85,109.2,87.1c-16.36,1.48-30.52,8.13-42.48,19.38-3.91,3.69-8.27,5.52-13.65,4a13,13,0,0,1-5.42-22.13C66.81,69.87,89.84,60.78,116.43,60.29Z"/></svg>