<svg xmlns="http://www.w3.org/2000/svg" viewBox="0 0 405.2 405.26"><path d="M213.14,213.89a19.78,19.78,0,0,1-6,14.33c-21.39,21.44-42.71,42.94-64.25,64.23A21.27,21.27,0,0,1,113,262.22q31.78-32.12,63.88-63.89a21.18,21.18,0,0,1,36.29,15.56Z"/><path d="M388,76.51Q358.48,47,329,17.5c-23.4-23.39-59.8-23.33-83.28.15Q131.57,131.79,17.44,245.91A57.12,57.12,0,0,0,.05,287.59q-.12,47.48,0,95c0,13.84,8.93,22.67,22.87,22.7,16.15,0,32.31,0,48.47,0q22.73,0,45.47,0,25.23,0,43-17.87Q274,273.24,388.11,159.11A58.29,58.29,0,0,0,388,76.51ZM282,205.09q-78.88,78.66-157.53,157.53c-4.8,4.81-10.06,7.12-16.87,6.93-10.81-.28-21.64-.07-32.46-.07-11.83,0-23.65-.09-35.47.06-3,0-4-.7-4-3.88q.2-35.21,0-70.43c0-5.78,2.48-10.09,6.45-14,14-13.82,27.81-27.76,41.7-41.65Q141.94,181.45,200,123.28c2.95-3,4.37-2.92,7.28,0q37.25,37.62,74.87,74.88C285,201,284.67,202.43,282,205.09Zm76.17-76.5c-11,11.54-22.5,22.68-33.71,34.06-1.58,1.61-2.45,1.38-3.93-.1q-38.78-38.91-77.68-77.67c-1.68-1.68-1.78-2.6-.05-4.31C254,69.59,265,58.49,276.06,47.45a15.82,15.82,0,0,1,22.84.14c19.66,19.64,39.39,39.23,58.91,59C364.24,113.12,364.44,122.05,358.18,128.59Z"/></svg>