<svg xmlns="http://www.w3.org/2000/svg" viewBox="0 0 75 75"><defs><style>.cls-1{fill:#fff;}</style></defs><g id="Camada_2" data-name="Camada 2"><g id="Camada_1-2" data-name="Camada 1"><path class="cls-1" d="M0,0H75V75H0ZM58.75,66.79c.28.26.49.46.71.65a8.94,8.94,0,0,0,10.78.67q1.94-1.32.17-2.9a6,6,0,0,1,0-9.2c1.12-1,1.06-2-.16-2.81a8.93,8.93,0,0,0-11,.75l-.51.46c-.08,0-.1,0-.12,0a1.3,1.3,0,0,1-.23-.18A14.87,14.87,0,0,0,45,50.47a14,14,0,0,0-10.89,9,3.15,3.15,0,0,0,0,2.34C36.5,68.32,43.86,72.29,51,70.83A15.34,15.34,0,0,0,58.75,66.79Zm0-46.4.6.55a9,9,0,0,0,11.07.64A1.5,1.5,0,0,0,70.58,19a6,6,0,0,1,0-9.46,1.5,1.5,0,0,0-.13-2.62A8.77,8.77,0,0,0,63.2,5.49,8.88,8.88,0,0,0,58.78,8a1.87,1.87,0,0,1-.21-.14A14.84,14.84,0,0,0,45.56,4a14.1,14.1,0,0,0-11.25,8.61,3.88,3.88,0,0,0,0,3.23c2.58,6.4,9.95,10.13,17,8.55A15.42,15.42,0,0,0,58.74,20.39ZM28.8,31.23,28.46,31a14.88,14.88,0,0,0-13.92-3.56,13.88,13.88,0,0,0-10.38,9,2.41,2.41,0,0,0,0,2,24.6,24.6,0,0,0,2.23,4,15.26,15.26,0,0,0,21.55,2l.88-.76.58.54A9,9,0,0,0,40.11,45c1.52-1,1.58-1.89.26-3.11a5.85,5.85,0,0,1-1.93-5.6,6.12,6.12,0,0,1,2.18-3.61,1.51,1.51,0,0,0-.13-2.62A7.81,7.81,0,0,0,39,29.25C35.24,27.7,31.86,28.41,28.8,31.23Z"/><path d="M58.75,66.79a15.34,15.34,0,0,1-7.76,4c-7.13,1.46-14.49-2.51-16.85-9.07a3.15,3.15,0,0,1,0-2.34,14,14,0,0,1,10.89-9,14.87,14.87,0,0,1,13.4,3.72,1.3,1.3,0,0,0,.23.18s0,0,.12,0L59.3,54a8.93,8.93,0,0,1,11-.75c1.22.84,1.28,1.85.16,2.81a6,6,0,0,0,0,9.2q1.77,1.58-.17,2.9a8.94,8.94,0,0,1-10.78-.67C59.24,67.25,59,67.05,58.75,66.79ZM67.2,55a5.81,5.81,0,0,0-7,2.34c-.8,1.21-1.8,1.29-2.72.19a11.61,11.61,0,0,0-9.18-4.38,11.75,11.75,0,0,0-10.59,5.6,3.09,3.09,0,0,0,0,3.68C41.5,68.78,50.85,70.05,56.34,65c.44-.41.84-.88,1.24-1.33a1.5,1.5,0,0,1,2.57.15,8.93,8.93,0,0,0,.82,1,5.61,5.61,0,0,0,6.2,1.41C64.61,62.5,64.6,58.8,67.2,55Z"/><path d="M58.74,20.39a15.42,15.42,0,0,1-7.42,4c-7.06,1.58-14.43-2.15-17-8.55a3.88,3.88,0,0,1,0-3.23A14.1,14.1,0,0,1,45.56,4a14.84,14.84,0,0,1,13,3.93,1.87,1.87,0,0,0,.21.14A8.88,8.88,0,0,1,63.2,5.49a8.77,8.77,0,0,1,7.23,1.39,1.5,1.5,0,0,1,.13,2.62,6,6,0,0,0,0,9.46,1.5,1.5,0,0,1-.17,2.62,9,9,0,0,1-11.07-.64ZM67.19,8.64a5.78,5.78,0,0,0-7,2.4,1.49,1.49,0,0,1-2.6.19A11.84,11.84,0,0,0,46.33,6.89a11.36,11.36,0,0,0-9,6.28,2.16,2.16,0,0,0,0,2.13,12.25,12.25,0,0,0,20.23,1.94,1.48,1.48,0,0,1,2.6.14c.11.16.22.32.34.47a5.69,5.69,0,0,0,6.68,1.94C64.61,16.09,64.61,12.39,67.19,8.64Z"/><path d="M28.8,31.23c3.06-2.82,6.44-3.53,10.24-2a7.81,7.81,0,0,1,1.45.84,1.51,1.51,0,0,1,.13,2.62,6.12,6.12,0,0,0-2.18,3.61,5.85,5.85,0,0,0,1.93,5.6c1.32,1.22,1.26,2.15-.26,3.11a9,9,0,0,1-10.71-.89l-.58-.54-.88.76a15.26,15.26,0,0,1-21.55-2,24.6,24.6,0,0,1-2.23-4,2.41,2.41,0,0,1,0-2,13.88,13.88,0,0,1,10.38-9A14.88,14.88,0,0,1,28.46,31Zm8.46.58a5.84,5.84,0,0,0-7,2.39,1.5,1.5,0,0,1-2.68.17,11.83,11.83,0,0,0-11.49-4.23,11,11,0,0,0-8.84,6.6,1.65,1.65,0,0,0,0,1.29,15.87,15.87,0,0,0,2.12,3.2,12.31,12.31,0,0,0,18.14-.63c1-1.17,2-1.13,2.83.12a6,6,0,0,0,3,2.34,5.44,5.44,0,0,0,3.95,0A9.1,9.1,0,0,1,37.26,31.81Z"/><path class="cls-1" d="M67.2,55c-2.6,3.77-2.59,7.47,0,11.17A5.61,5.61,0,0,1,61,64.79a8.93,8.93,0,0,1-.82-1,1.5,1.5,0,0,0-2.57-.15c-.4.45-.8.92-1.24,1.33-5.49,5.1-14.84,3.83-18.62-2.49a3.09,3.09,0,0,1,0-3.68,11.75,11.75,0,0,1,10.59-5.6,11.61,11.61,0,0,1,9.18,4.38c.92,1.1,1.92,1,2.72-.19A5.81,5.81,0,0,1,67.2,55ZM45,60.69a1.48,1.48,0,1,0-2.95-.11,1.48,1.48,0,1,0,2.95.11Z"/><path class="cls-1" d="M67.19,8.64c-2.58,3.75-2.58,7.45,0,11.15a5.69,5.69,0,0,1-6.68-1.94c-.12-.15-.23-.31-.34-.47a1.48,1.48,0,0,0-2.6-.14A12.25,12.25,0,0,1,37.33,15.3a2.16,2.16,0,0,1,0-2.13,11.36,11.36,0,0,1,9-6.28,11.84,11.84,0,0,1,11.25,4.34,1.49,1.49,0,0,0,2.6-.19A5.78,5.78,0,0,1,67.19,8.64ZM42.09,14.2a1.45,1.45,0,0,0,1.46,1.5,1.49,1.49,0,1,0-1.46-1.5Z"/><path class="cls-1" d="M37.26,31.81a9.1,9.1,0,0,0,0,11.23,5.44,5.44,0,0,1-3.95,0,6,6,0,0,1-3-2.34c-.87-1.25-1.84-1.29-2.83-.12a12.31,12.31,0,0,1-18.14.63A15.87,15.87,0,0,1,7.22,38a1.65,1.65,0,0,1,0-1.29,11,11,0,0,1,8.84-6.6,11.83,11.83,0,0,1,11.49,4.23,1.5,1.5,0,0,0,2.68-.17A5.84,5.84,0,0,1,37.26,31.81ZM13.58,36a1.48,1.48,0,1,0,.07,2.95A1.48,1.48,0,0,0,13.58,36Z"/><path d="M45,60.69a1.48,1.48,0,1,1-2.95-.11,1.48,1.48,0,1,1,2.95.11Z"/><path d="M42.09,14.2a1.48,1.48,0,1,1,1.46,1.5A1.45,1.45,0,0,1,42.09,14.2Z"/><path d="M13.58,36a1.48,1.48,0,0,1,.07,2.95A1.48,1.48,0,1,1,13.58,36Z"/></g></g></svg>