<svg xmlns="http://www.w3.org/2000/svg" viewBox="0 0 384 384"><defs><style>.cls-1{fill:#fff;}</style></defs><g id="Camada_2" data-name="Camada 2"><g id="Camada_1-2" data-name="Camada 1"><path class="cls-1" d="M0,311.25V0H261.75c-2.39,2.09-4.7,4.26-3.38,7.89s4.49,4.16,7.95,4.14c11-.08,22,0,33,0,1,0,2.07.15,3.11.22l.44.9c-13.3,11.32-26.37,22.94-40,33.89-34,27.38-70.18,51.24-110.28,68.81-27.3,12-55.55,20.26-85.47,22.12-4.64.29-7.34,2.67-7.13,6.38s3.1,6,7.8,5.56c8.94-.9,17.92-1.7,26.76-3.29,32.25-5.8,62.29-17.82,91.08-33.17,45.29-24.14,85.68-55,123.11-89.93.87-.8,1.78-1.55,3.22-2.8v8.45c0,10.12-.05,20.25,0,30.37,0,3.85,2.48,6.39,5.87,6.45s5.86-2.46,6.08-6.26c0-.87,0-1.75,0-2.62,0-16-.09-32,.07-48,0-3.76-.74-6.82-3.82-9.1H384V345.75c-2.12-3.05-5-3.94-8.7-3.82-7.11.24-14.24.07-21.37.07H348V92.45c0-6.64-1.8-8.44-8.43-8.45H297.2c-7.67,0-9.2,1.53-9.2,9.18V341.76H264V128.23c0-6.36-1.88-8.22-8.28-8.23q-21.37,0-42.74,0c-7.38,0-9,1.61-9,9V341.81H180V164.75c0-7.1-1.68-8.75-8.88-8.75H128.37c-6.59,0-8.37,1.81-8.37,8.5v92.24a22.25,22.25,0,0,0,.1,3.37,5.94,5.94,0,0,0,6,5.11,5.84,5.84,0,0,0,5.74-5,18.62,18.62,0,0,0,.14-3.74v-88.3h35.77V342H147.36c-6.09,0-8.88,1.92-8.83,6.08s2.82,5.92,9,5.92H371.77v18H367.1q-120.18,0-240.35,0c-3.52,0-6.55.58-7.69,4.44s1.12,5.84,3.94,7.59H72.75a11.75,11.75,0,0,1,2.09-.66,65.81,65.81,0,0,0,56.57-73.51c-3.8-29.3-26.56-52.9-55-57C46.24,248.44,18,263.62,5.88,291.26,3.11,297.57,1.92,304.57,0,311.25ZM84,198.17v4.33c0,11.24,0,22.48,0,33.72,0,4.41,2.29,7.15,5.86,7.23s6.1-2.68,6.11-7Q96,214.74,96,193c0-4.7-2.22-7-6.84-7q-23.22-.08-46.45,0c-4.4,0-6.65,2.31-6.67,6.76q-.08,21.92,0,43.83c0,4.1,2.41,6.77,5.88,6.83s6.07-2.7,6.08-7c.05-11.37,0-22.73,0-34.09v-4.18Z"/><path d="M123,384c-2.82-1.75-5-3.85-3.94-7.59s4.17-4.44,7.69-4.44q120.18.06,240.35,0h4.67V354H147.53c-6.18,0-8.95-1.82-9-5.92s2.74-6.08,8.83-6.08h20.41V168.19H132v88.3a18.62,18.62,0,0,1-.14,3.74,5.84,5.84,0,0,1-5.74,5,5.94,5.94,0,0,1-6-5.11,22.25,22.25,0,0,1-.1-3.37V164.5c0-6.69,1.78-8.49,8.37-8.5h42.75c7.2,0,8.88,1.65,8.88,8.75V341.81h24V129c0-7.42,1.6-9,9-9q21.36,0,42.74,0c6.4,0,8.28,1.87,8.28,8.23V341.76h24V93.18c0-7.65,1.53-9.18,9.2-9.18h42.37c6.63,0,8.43,1.81,8.43,8.45V342h5.93c7.13,0,14.26.17,21.37-.07,3.68-.12,6.58.77,8.7,3.82V384Zm212.75-42.18V96.29H300.18V341.82ZM251.84,132.27H216.29V341.8h35.55Z"/><path d="M320.25,0c3.08,2.28,3.85,5.34,3.82,9.1-.16,16-.07,32-.07,48,0,.87,0,1.75,0,2.62-.22,3.8-2.69,6.32-6.08,6.26s-5.84-2.6-5.87-6.45c-.08-10.12,0-20.25,0-30.37V20.7c-1.44,1.25-2.35,2-3.22,2.8C271.35,58.42,231,89.29,185.67,113.43c-28.79,15.35-58.83,27.37-91.08,33.17-8.84,1.59-17.82,2.39-26.76,3.29-4.7.47-7.58-1.84-7.8-5.56s2.49-6.09,7.13-6.38c29.92-1.86,58.17-10.17,85.47-22.12C192.73,98.26,229,74.4,262.91,47c13.59-11,26.66-22.57,40-33.89l-.44-.9c-1-.07-2.07-.22-3.11-.22-11,0-22-.06-33,0-3.46,0-6.58-.38-7.95-4.14s1-5.8,3.38-7.89Z"/><path d="M0,311.25c1.92-6.68,3.11-13.68,5.88-20C18,263.62,46.24,248.44,76.42,252.81c28.43,4.12,51.19,27.72,55,57a65.81,65.81,0,0,1-56.57,73.51,11.75,11.75,0,0,0-2.09.66H59.25a16.24,16.24,0,0,0-2.09-.65q-41.44-7.05-54.48-47c-1.23-3.76-1.8-7.73-2.68-11.6Zm12,6.84A54.09,54.09,0,0,0,65.9,372c29.58.12,54.06-24.19,54.09-53.72,0-29.8-24-54.19-53.52-54.28A54,54,0,0,0,12,318.09Z"/><path class="cls-1" d="M0,324.75c.88,3.87,1.45,7.84,2.68,11.6q13,39.9,54.48,47a16.24,16.24,0,0,1,2.09.65H0Z"/><path d="M84,198.17H48v4.18c0,11.36,0,22.72,0,34.09,0,4.31-2.48,7.07-6.08,7S36,240.72,36,236.62q-.06-21.92,0-43.83c0-4.45,2.27-6.75,6.67-6.76q23.24-.09,46.45,0c4.62,0,6.83,2.29,6.84,7q.08,21.74,0,43.45c0,4.31-2.51,7.07-6.11,7S84,240.63,84,236.22c0-11.24,0-22.48,0-33.72Z"/><path class="cls-1" d="M335.75,341.82H300.18V96.29h35.57Z"/><path class="cls-1" d="M251.84,132.27V341.8H216.29V132.27Z"/><path class="cls-1" d="M12,318.09A54,54,0,0,1,66.47,264C96,264.09,120,288.48,120,318.28c0,29.53-24.51,53.84-54.09,53.72A54.09,54.09,0,0,1,12,318.09ZM59.87,341l-1.32.84c-1.51-1.87-3.69-3.51-4.4-5.65-1.49-4.47-3.91-6.82-7.46-6s-5.35,4.23-4.4,8.64c1.72,8,7.21,12.31,14.74,14.22,1.95.5,2.58,1.43,3.58,3,1.14,1.73,3.49,3.65,5.33,3.67s4.48-1.83,5.34-3.56a5.93,5.93,0,0,1,4.1-3.48A20.41,20.41,0,0,0,90,333,20.62,20.62,0,0,0,75.15,313.2l-3.15-1V294.64c3.33.86,5.43,2.15,6,5.35.81,4.39,3.63,6.62,7.08,5.86s5.47-4.07,4.71-8.15c-1.49-8.06-6.8-12.54-14.31-14.64a5.68,5.68,0,0,1-4.25-3.27c-.88-1.72-3.55-3.53-5.39-3.48A7.11,7.11,0,0,0,60.64,280c-.88,2.11-2.06,2.66-3.86,3.22C41.39,288,36.77,307.44,48.7,318c3,2.71,7.15,4.22,11.17,6.51Z"/><path d="M59.87,341V324.55c-4-2.29-8.13-3.8-11.17-6.51-11.93-10.6-7.31-30,8.08-34.78,1.8-.56,3-1.11,3.86-3.22a7.11,7.11,0,0,1,5.22-3.73c1.84-.05,4.51,1.76,5.39,3.48a5.68,5.68,0,0,0,4.25,3.27c7.51,2.1,12.82,6.58,14.31,14.64.76,4.08-1.22,7.38-4.71,8.15S78.83,304.38,78,300c-.59-3.2-2.69-4.49-6-5.35v17.58l3.15,1A20.62,20.62,0,0,1,90,333a20.41,20.41,0,0,1-14.6,19.61,5.93,5.93,0,0,0-4.1,3.48c-.86,1.73-3.5,3.58-5.34,3.56s-4.19-1.94-5.33-3.67c-1-1.54-1.63-2.47-3.58-3-7.53-1.91-13-6.2-14.74-14.22-.95-4.41.8-7.78,4.4-8.64s6,1.49,7.46,6c.71,2.14,2.89,3.78,4.4,5.65Zm0-45.71c-4.33,1.74-6.39,4.84-5.82,8.69a7.83,7.83,0,0,0,5.82,6.93Zm12.3,45.6a7.87,7.87,0,0,0,5.72-7.37c.36-3.75-1.74-6.66-5.72-8.13Z"/><path class="cls-1" d="M59.91,295.25v15.62a7.83,7.83,0,0,1-5.82-6.93C53.52,300.09,55.58,297,59.91,295.25Z"/><path class="cls-1" d="M72.21,340.85v-15.5c4,1.47,6.08,4.38,5.72,8.13A7.87,7.87,0,0,1,72.21,340.85Z"/></g></g></svg>