<svg xmlns="http://www.w3.org/2000/svg" xmlns:xlink="http://www.w3.org/1999/xlink" viewBox="0 0 960 540.14"><defs><style>.cls-1{fill:url(#Gradiente_sem_nome_24);}.cls-2{fill-rule:evenodd;fill:url(#Gradiente_sem_nome_29);}</style><linearGradient id="Gradiente_sem_nome_24" x1="180.31" y1="-712.37" x2="443.67" y2="-499.1" gradientTransform="matrix(1, 0, 0, -1, 59.06, -247.35)" gradientUnits="userSpaceOnUse"><stop offset="0" stop-color="#fff"/><stop offset="0.25" stop-color="#f2ffff"/><stop offset="0.7" stop-color="#d1ffff"/><stop offset="1" stop-color="#b7ffff"/></linearGradient><linearGradient id="Gradiente_sem_nome_29" x1="-7.02" y1="517.85" x2="874.02" y2="197.18" gradientUnits="userSpaceOnUse"><stop offset="0" stop-color="#fff"/><stop offset="1" stop-color="#80e9ff"/></linearGradient></defs><g id="Camada_2" data-name="Camada 2"><g id="Camada_1-2" data-name="Camada 1"><path class="cls-1" d="M915,308.87c-8.1,14.88-6.65,32.31-7.31,48.89s-4.89,35-19.92,44.4c-21.58,13.53-52.56,1.44-76.62,10.91-21,8.25-30.32,29.84-40.37,48.46s-27.49,38.37-50.23,36.39c-35.13-3.05-34.45-33.57-69.73-45.32-22.46-7.49-35.27,7.2-59.92,2.79-29.83-5.35-33.53-14.25-30-21.7,4.35-9.12.5-19.75-9-24.68h0a30.54,30.54,0,0,0-19.25-2.91c-7.7,1.35-20.89,3.72-43.17,7.86-27.62,5.22-56-8.35-64.92-32.65S420.78,330.6,420,305s-10.86-54.55-36.94-64.31c-17.13-6.39-37.67-2.93-54-11-40.56-20-22.83-87.26-81.67-85.87-17.27.4-33.62,6.42-50.61,9.05s-36.62.95-47.91-10.85c-13.3-13.87-11.35-37.88-28.44-47.72-15.22-8.78-35.1-.45-53.1-1.48A49.5,49.5,0,0,1,45.13,86,43.79,43.79,0,0,1,29.47,70.05C17.58,48.22,39.72,25,18.4,5.75a22.84,22.84,0,0,0-8.5-4.7A24.51,24.51,0,0,0,0,.16v540H960V294.25C945.62,284,923.05,294,915,308.87Z"/><path class="cls-2" d="M894.43,429.87a91.1,91.1,0,0,1,33.6-4.54,90.1,90.1,0,0,1,32,8.06V537.14H0V148.92c11.49-13.81,36.76-17.71,55.45-10.45,20.92,8.14,35.48,25.22,49.51,41.69l3.21,3.76c15.06,17.56,33.08,35.41,57.15,39.6,6.94,1.2,14.07,1.17,21.17,1.14,8.61,0,17.2-.08,25.42,2.06,31,8,43.42,41.37,48.9,70.23.68,3.59,1.27,7.25,1.87,10.94,3.71,22.95,7.57,46.78,33.59,57.58,17.77,7.35,37.82,7.34,57.5,7.33h6.58c21.75.09,44.94,1.84,62,14,12.2,8.71,19.5,21.5,26.71,34.14,1.37,2.41,2.74,4.81,4.14,7.17,8.74,14.79,20.64,29.83,38.47,34.23,12.1,3,25,.62,37.81-1.74,15.44-2.84,30.64-5.64,43.83,1.18,9.45,4.89,15.21,13.59,21,22.28,5.87,8.86,11.74,17.71,21.5,22.5,14.32,7,32.1,2.81,47-3.1,2.38-.94,4.78-1.93,7.17-2.92,12.61-5.2,25.43-10.49,39.1-10,14.77.57,28.21,7.81,41.46,14.95,15.92,8.57,31.57,17,48.91,13.52,22-4.41,33.25-23.73,44.26-42.6,6.63-11.36,13.17-22.57,21.89-30.25A85,85,0,0,1,894.43,429.87Z"/></g></g></svg>