<svg xmlns="http://www.w3.org/2000/svg" viewBox="0 0 383.01 383.7"><path d="M203.35,383.7H179.4a28.7,28.7,0,0,0-3.25-.64c-36.86-3-70.53-15-99.61-37.79C19.47,300.6-6.38,241.67,1.33,169.44,7.17,114.78,33.46,70.71,77.48,38.07c62.1-46,143.09-50.69,209.59-11.92,51.12,29.81,82.06,74.54,93,132.84,1.31,7,2,14,2.94,21.06v24a20.94,20.94,0,0,0-.61,2.89c-2.23,29-10.4,56.32-25.37,81.3-30.35,50.62-74.56,81.65-132.65,92.59C217.43,382.09,210.36,382.75,203.35,383.7Zm-8.24-41.65c6.06-.77,16.18-1.42,26-3.41,33.92-6.83,62-23.77,84.61-50a18.84,18.84,0,0,0,4.25-17.8,121.19,121.19,0,0,0-42.51-66.06c-7-5.65-15.34-5.82-22.86-.73a82.14,82.14,0,0,1-8.16,5.27c-33.3,17.15-65.82,16.1-97.32-4.57-9-5.87-16.74-5.89-25,.86-20,16.36-33.34,37-40.66,61.79-2.66,9-1.09,16.42,5.26,23.4C108.92,324,146.4,340.77,195.11,342.05ZM191.29,58.76c-37.48-.09-68.52,30.67-68.73,68.1-.21,38.18,30.68,69.53,68.51,69.52a69,69,0,0,0,69.1-68.91C260.27,89.7,229.35,58.86,191.29,58.76Z"/></svg>